<?xml version="1.0" encoding="utf-8"?>
<svg xmlns="http://www.w3.org/2000/svg" height="512pt" version="1.1" viewBox="0 0 512 512" width="512pt">
<path d="M 0.00 0.00 L 512.00 0.00 L 512.00 512.00 L 0.00 512.00 L 0.00 0.00 Z" fill="#fefeff" opacity="1.00" stroke="#fefeff" stroke-width="0.25"/>
<path d="M 370.57 43.89 C 377.27 59.17 386.92 73.84 388.00 90.93 C 388.58 96.07 386.67 100.98 384.40 105.48 C 380.40 113.60 377.20 122.10 374.88 130.85 C 372.21 120.58 369.17 110.40 367.02 100.01 C 364.75 87.58 369.10 75.32 369.79 62.97 C 370.63 56.64 370.16 50.24 370.57 43.89 Z" fill="#000000" opacity="1.00" stroke="#000000" stroke-width="0.25"/>
<path d="M 331.40 70.43 C 341.40 79.09 351.71 87.67 359.73 98.27 C 366.82 109.81 371.07 123.42 370.23 137.05 C 370.24 145.19 366.27 152.80 366.85 160.99 C 367.26 177.30 363.48 193.48 357.41 208.55 C 355.64 212.67 353.97 216.89 351.25 220.49 C 370.89 222.43 390.58 226.18 408.73 234.18 C 426.71 241.56 443.11 253.88 453.35 270.59 C 460.38 282.54 465.42 296.02 465.75 310.00 C 465.98 321.04 465.68 333.02 459.27 342.50 C 451.59 352.85 439.16 357.83 427.54 362.34 C 420.20 364.68 413.00 367.83 405.33 368.91 L 404.77 370.47 C 404.57 369.86 404.23 369.03 405.12 368.84 C 416.74 363.05 428.41 356.90 437.96 347.97 C 441.48 344.49 445.25 340.81 446.50 335.84 C 445.44 333.01 443.76 330.44 441.35 328.59 C 435.01 323.41 427.67 319.52 420.02 316.69 C 405.20 311.27 389.62 308.20 373.96 306.61 C 350.26 303.88 326.27 306.24 303.01 311.08 C 290.07 313.67 277.35 317.40 265.06 322.19 C 264.56 322.19 263.56 322.19 263.06 322.20 C 239.86 317.28 216.09 314.98 192.39 315.90 C 166.17 317.29 139.79 321.94 115.56 332.36 C 108.81 335.35 102.27 338.88 96.27 343.19 C 94.45 344.70 92.09 346.33 92.05 348.97 C 92.52 351.40 94.77 352.90 96.56 354.38 C 107.49 362.01 120.67 365.39 133.56 368.03 C 119.07 367.96 104.10 367.42 90.62 361.54 C 80.62 356.85 73.63 347.34 70.48 336.93 C 65.60 321.92 63.74 305.78 65.92 290.10 C 67.94 275.33 75.74 261.67 86.58 251.57 C 96.56 242.33 108.15 234.70 120.90 229.86 C 139.23 222.64 159.10 219.00 178.80 220.44 C 167.71 207.18 161.27 190.25 159.81 173.08 C 158.75 151.92 165.57 130.37 178.98 113.91 C 192.91 96.23 213.47 84.02 235.54 79.76 C 252.51 76.65 270.29 78.35 286.44 84.37 C 299.60 89.52 311.78 97.17 321.86 107.11 C 335.77 121.85 346.64 139.94 350.44 160.03 C 352.41 170.90 352.29 182.09 350.73 192.99 C 350.17 197.46 348.53 201.70 348.06 206.18 C 357.20 191.23 360.77 173.72 364.37 156.79 C 361.58 154.89 358.37 153.18 356.98 149.91 C 350.34 136.64 347.85 121.84 342.41 108.10 C 338.48 95.63 333.43 83.40 331.40 70.43 Z" fill="#000000" opacity="1.00" stroke="#000000" stroke-width="0.25"/>
<path d="M 391.04 98.13 C 402.30 83.70 420.20 76.26 437.83 73.28 C 431.51 80.19 425.54 87.41 420.07 95.02 C 410.54 108.07 398.64 119.20 385.71 128.82 C 382.21 131.23 379.31 134.57 375.34 136.24 C 375.46 132.37 377.38 128.94 378.65 125.37 C 382.17 116.05 385.57 106.52 391.04 98.13 Z" fill="#000000" opacity="1.00" stroke="#000000" stroke-width="0.25"/>
<path d="M 224.85 102.75 C 238.58 97.45 253.95 95.29 268.38 98.87 C 287.90 103.29 305.90 115.40 316.17 132.73 C 324.22 146.24 328.72 162.38 326.47 178.13 C 323.91 198.63 311.62 217.18 294.75 228.82 C 288.25 233.69 280.23 236.46 274.72 242.63 C 267.82 250.25 262.22 259.49 260.28 269.68 C 251.97 259.72 245.50 247.85 234.55 240.42 C 227.23 235.57 219.34 231.65 211.51 227.69 C 198.38 221.16 189.10 208.60 184.11 195.06 C 176.47 175.57 177.98 152.74 188.28 134.49 C 196.56 120.29 209.64 108.96 224.85 102.75 Z" fill="#fefeff" opacity="1.00" stroke="#fefeff" stroke-width="0.25"/>
<path d="M 250.76 111.03 C 250.53 107.97 252.78 104.72 256.00 104.63 C 259.45 104.34 263.04 107.29 262.72 110.90 C 262.61 125.64 262.86 140.38 262.81 155.13 C 265.63 156.58 267.96 158.75 269.99 161.17 C 283.30 161.50 296.62 161.47 309.93 161.52 C 312.90 161.34 315.97 162.82 317.49 165.41 C 318.13 167.38 318.18 170.01 316.52 171.50 C 314.55 173.44 311.66 173.80 309.03 173.76 C 296.29 173.66 283.55 173.61 270.81 173.64 C 268.47 177.78 265.53 182.02 260.83 183.66 C 254.40 186.61 246.16 183.48 242.96 177.26 C 238.30 169.51 241.78 157.84 250.60 154.93 C 250.61 140.30 250.59 125.66 250.76 111.03 Z" fill="#000000" opacity="1.00" stroke="#000000" stroke-width="0.25"/>
<path d="M 393.40 127.63 C 402.44 123.69 412.50 123.02 422.24 122.68 C 414.97 127.81 407.76 133.07 401.20 139.10 C 392.59 146.42 382.79 154.40 370.87 154.29 C 372.69 148.53 376.37 143.61 379.98 138.85 C 383.44 134.08 388.23 130.38 393.40 127.63 Z" fill="#000000" opacity="1.00" stroke="#000000" stroke-width="0.25"/>
<path d="M 125.53 242.86 C 151.48 233.44 180.30 231.53 207.09 238.49 C 214.62 240.61 222.22 243.00 228.90 247.19 C 235.37 251.19 239.74 257.68 243.59 264.07 C 246.53 270.05 249.79 275.98 251.50 282.46 C 242.54 276.38 232.36 272.49 222.23 268.89 C 194.01 259.61 163.10 255.97 134.05 263.59 C 113.88 269.26 94.92 280.21 81.21 296.21 C 79.01 298.85 77.13 301.76 75.63 304.85 C 76.98 294.64 78.76 284.07 84.35 275.21 C 93.32 259.64 108.84 248.81 125.53 242.86 Z" fill="#fefeff" opacity="1.00" stroke="#fefeff" stroke-width="0.25"/>
<path d="M 318.90 252.12 C 322.47 248.37 326.62 245.21 330.02 241.30 C 350.36 240.33 370.93 241.02 390.93 245.17 C 405.01 248.20 419.51 251.86 431.36 260.45 C 434.15 262.37 437.05 264.16 439.61 266.40 C 414.75 254.97 387.27 250.28 360.10 248.95 C 350.10 248.25 340.11 249.20 330.13 249.64 C 326.36 250.25 322.24 250.00 318.90 252.12 Z" fill="#fefeff" opacity="1.00" stroke="#fefeff" stroke-width="0.25"/>
<path d="M 340.88 267.67 C 368.98 264.78 397.86 268.52 424.17 278.85 C 434.29 283.14 445.11 288.11 451.21 297.74 C 454.83 303.52 456.00 310.37 456.99 317.01 C 447.60 305.74 433.56 299.96 420.11 295.09 C 395.70 287.01 369.76 283.39 344.08 284.65 C 316.53 286.69 288.97 293.57 264.65 306.89 C 258.91 304.71 252.89 303.42 246.92 302.08 C 218.85 295.49 189.53 294.68 161.03 298.72 C 132.19 302.85 103.67 312.90 80.58 331.02 C 82.02 325.04 83.01 318.74 86.50 313.53 C 94.33 300.90 107.41 292.70 120.72 286.80 C 146.01 276.22 174.28 275.69 201.10 279.33 C 218.01 281.72 234.81 286.05 250.02 293.98 C 253.78 296.06 257.90 297.66 261.13 300.58 C 265.07 295.56 270.87 292.47 276.16 289.06 C 296.03 277.77 318.12 270.17 340.88 267.67 Z" fill="#fefeff" opacity="1.00" stroke="#fefeff" stroke-width="0.25"/>
<path d="M 267.07 280.05 C 272.02 276.06 277.21 272.31 282.76 269.20 C 274.42 275.54 266.65 282.56 258.56 289.20 C 260.57 285.47 263.98 282.83 267.07 280.05 Z" fill="#fefeff" opacity="1.00" stroke="#fefeff" stroke-width="0.25"/>
</svg>